<?xml version="1.0" standalone="no"?>
<!DOCTYPE svg PUBLIC "-//W3C//DTD SVG 20010904//EN"
 "http://www.w3.org/TR/2001/REC-SVG-20010904/DTD/svg10.dtd">
<svg version="1.0" xmlns="http://www.w3.org/2000/svg"
 width="385.000000pt" height="347.000000pt" viewBox="0 0 385.000000 347.000000"
 preserveAspectRatio="xMidYMid meet">
<metadata>
Created by potrace 1.16, written by Peter Selinger 2001-2019
</metadata>
<g transform="translate(0.000000,347.000000) scale(0.100000,-0.100000)"
fill="#000000" stroke="none">
<path d="M456 3088 c-12 -20 -7 -95 39 -611 46 -506 52 -611 48 -745 -3 -112
-1 -177 9 -228 l15 -72 -91 -36 c-92 -36 -239 -116 -251 -137 -4 -6 0 -18 8
-26 14 -14 18 -14 44 4 39 28 162 89 229 114 58 22 84 20 84 -6 0 -8 15 -53
34 -100 l34 -85 -81 -57 c-101 -70 -247 -214 -247 -242 0 -39 34 -22 110 55
70 70 177 157 226 182 20 10 25 6 57 -46 102 -165 307 -350 507 -459 217 -117
526 -187 723 -163 369 44 641 172 883 414 60 61 134 147 163 191 29 44 54 81
56 83 10 10 163 -106 247 -186 64 -62 103 -92 113 -88 28 10 15 32 -67 113
-95 93 -119 114 -205 171 l-62 42 35 85 c19 46 34 92 34 100 0 9 6 18 14 21
20 8 158 -48 250 -101 94 -53 110 -57 114 -28 3 17 -11 29 -78 67 -80 45 -245
116 -270 116 -7 0 -10 7 -6 15 14 39 26 237 19 321 -7 76 0 194 45 700 37 412
51 613 45 623 -26 41 -54 28 -372 -179 l-309 -201 -94 50 c-199 106 -380 158
-584 168 -241 12 -510 -55 -715 -177 -56 -33 -72 -39 -89 -30 -18 10 -465 299
-558 361 -52 35 -86 37 -106 7z m389 -318 c153 -99 284 -180 291 -180 8 0 37
15 66 34 174 110 345 170 563 196 223 27 514 -43 735 -176 51 -31 100 -54 109
-51 9 2 138 83 286 180 213 139 271 172 273 159 2 -10 -18 -247 -43 -528 -39
-434 -45 -530 -40 -649 6 -123 -4 -267 -19 -282 -2 -3 -59 3 -126 12 -253 36
-843 -6 -864 -61 -10 -26 1 -32 66 -39 314 -32 556 -90 757 -181 l63 -29 -53
-80 c-189 -281 -515 -483 -884 -547 -183 -31 -348 -13 -560 62 -272 97 -515
285 -654 505 l-31 50 67 33 c86 44 267 103 413 136 91 20 354 56 410 56 5 0
10 11 10 24 0 27 -3 28 -205 63 -140 24 -615 25 -725 1 -48 -10 -79 -13 -85
-7 -6 6 -11 102 -11 242 -2 181 -11 332 -43 687 -22 250 -43 476 -46 503 -3
26 -4 47 -1 47 2 0 129 -81 281 -180z m575 -1338 l45 -8 -80 -12 c-190 -30
-449 -108 -581 -175 l-51 -26 -18 37 c-18 39 -55 140 -55 153 0 9 80 28 166
39 79 10 507 4 574 -8z m1564 -3 l68 -12 -5 -32 c-3 -17 -19 -62 -36 -99 l-30
-67 -48 24 c-124 63 -373 137 -568 170 l-80 13 95 11 c120 14 513 9 604 -8z"/>
<path d="M2335 2321 c-52 -23 -115 -93 -147 -161 -104 -222 -32 -519 147 -613
51 -27 146 -29 193 -4 116 62 192 216 192 389 l0 88 -155 0 -155 0 91 112 c50
62 94 118 96 126 6 15 -14 33 -69 62 -48 26 -138 26 -193 1z"/>
<path d="M1199 2310 c-153 -81 -231 -349 -161 -551 49 -139 157 -239 261 -239
104 0 215 100 262 239 22 62 35 184 25 225 l-6 25 -151 3 -151 3 97 118 c95
117 96 119 78 139 -52 58 -180 77 -254 38z"/>
<path d="M1830 1368 c-32 -62 -68 -107 -104 -129 -41 -25 -115 -25 -166 1 -52
26 -80 26 -80 -1 0 -25 74 -60 141 -67 l46 -4 89 -237 c73 -193 93 -237 109
-239 17 -2 32 28 112 235 l91 238 49 6 c57 8 143 47 143 66 0 24 -29 26 -80 4
-116 -50 -197 -14 -270 118 -33 61 -52 63 -80 9z"/>
</g>
</svg>
